<?xml version="1.0" encoding="UTF-8" standalone="no"?><!DOCTYPE svg PUBLIC "-//W3C//DTD SVG 1.1//EN" "http://www.w3.org/Graphics/SVG/1.1/DTD/svg11.dtd"><svg width="100%" height="100%" viewBox="0 0 134 134" version="1.1" xmlns="http://www.w3.org/2000/svg" xmlns:xlink="http://www.w3.org/1999/xlink" xml:space="preserve" xmlns:serif="http://www.serif.com/" style="fill-rule:evenodd;clip-rule:evenodd;stroke-linejoin:round;stroke-miterlimit:2;"><g id="Layer_2"><path d="M66.667,120.833c-29.715,0 -54.167,-24.451 -54.167,-54.166c-0,-29.715 24.452,-54.167 54.167,-54.167c29.715,-0 54.166,24.452 54.166,54.167c0,29.715 -24.451,54.166 -54.166,54.166Zm-0,-100c-25.144,0 -45.834,20.69 -45.834,45.834c0,25.143 20.69,45.833 45.834,45.833c25.143,0 45.833,-20.69 45.833,-45.833c0,-25.144 -20.69,-45.834 -45.833,-45.834Z" style="fill:#fff;fill-rule:nonzero;"/><path d="M89.583,93.75c-1.107,0.006 -2.172,-0.429 -2.958,-1.208l-22.917,-22.917c-0.779,-0.786 -1.214,-1.851 -1.208,-2.958l0,-33.334c0,-2.285 1.881,-4.166 4.167,-4.166c2.285,-0 4.166,1.881 4.166,4.166l0,31.625l21.709,21.667c0.788,0.782 1.232,1.848 1.232,2.958c0,1.111 -0.444,2.177 -1.232,2.959c-0.786,0.779 -1.852,1.214 -2.959,1.208Z" style="fill:#fff;fill-rule:nonzero;"/></g><g id="frame"><rect x="0" y="0" width="133.333" height="133.333" style="fill:none;"/></g></svg>